<svg width="820" height="320" viewBox="0 0 820 320" fill="none" xmlns="http://www.w3.org/2000/svg">
<rect x="106" y="90" width="63.0455" height="63.0455" fill="#E8798A"/>
<rect x="175.955" y="159.955" width="63.0455" height="63.0455" fill="#E8798A"/>
<rect x="106" y="159.955" width="63.0455" height="63.0455" rx="31.5227" fill="#E8798A"/>
<rect x="175.955" y="90" width="63.0455" height="63.0455" fill="#E8798A"/>
<path d="M300.824 143.688C302.872 140.36 305.816 137.672 309.656 135.624C313.496 133.576 317.891 132.552 322.84 132.552C328.728 132.552 334.061 134.045 338.84 137.032C343.619 140.019 347.373 144.285 350.104 149.832C352.92 155.379 354.328 161.821 354.328 169.16C354.328 176.499 352.92 182.984 350.104 188.616C347.373 194.163 343.619 198.472 338.84 201.544C334.061 204.531 328.728 206.024 322.84 206.024C317.805 206.024 313.411 205.043 309.656 203.08C305.901 201.032 302.957 198.344 300.824 195.016V205H278.936V110.28H300.824V143.688ZM332.056 169.16C332.056 163.699 330.52 159.432 327.448 156.36C324.461 153.203 320.749 151.624 316.312 151.624C311.96 151.624 308.248 153.203 305.176 156.36C302.189 159.517 300.696 163.827 300.696 169.288C300.696 174.749 302.189 179.059 305.176 182.216C308.248 185.373 311.96 186.952 316.312 186.952C320.664 186.952 324.376 185.373 327.448 182.216C330.52 178.973 332.056 174.621 332.056 169.16ZM387.699 145.48C390.259 141.555 393.459 138.483 397.299 136.264C401.139 133.96 405.406 132.808 410.099 132.808V155.976H404.083C398.622 155.976 394.526 157.171 391.795 159.56C389.064 161.864 387.699 165.96 387.699 171.848V205H365.811V133.576H387.699V145.48ZM487.889 168.136C487.889 170.184 487.761 172.317 487.505 174.536H437.969C438.31 178.973 439.718 182.387 442.193 184.776C444.753 187.08 447.868 188.232 451.537 188.232C456.998 188.232 460.796 185.928 462.929 181.32H486.225C485.03 186.013 482.854 190.237 479.697 193.992C476.625 197.747 472.742 200.691 468.049 202.824C463.356 204.957 458.108 206.024 452.305 206.024C445.308 206.024 439.078 204.531 433.617 201.544C428.156 198.557 423.889 194.291 420.817 188.744C417.745 183.197 416.209 176.712 416.209 169.288C416.209 161.864 417.702 155.379 420.689 149.832C423.761 144.285 428.028 140.019 433.489 137.032C438.95 134.045 445.222 132.552 452.305 132.552C459.217 132.552 465.361 134.003 470.737 136.904C476.113 139.805 480.294 143.944 483.281 149.32C486.353 154.696 487.889 160.968 487.889 168.136ZM465.489 162.376C465.489 158.621 464.209 155.635 461.649 153.416C459.089 151.197 455.889 150.088 452.049 150.088C448.38 150.088 445.265 151.155 442.705 153.288C440.23 155.421 438.694 158.451 438.097 162.376H465.489ZM495.084 169.16C495.084 161.821 496.449 155.379 499.18 149.832C501.996 144.285 505.793 140.019 510.572 137.032C515.351 134.045 520.684 132.552 526.572 132.552C531.607 132.552 536.001 133.576 539.756 135.624C543.596 137.672 546.54 140.36 548.588 143.688V133.576H570.476V205H548.588V194.888C546.455 198.216 543.468 200.904 539.628 202.952C535.873 205 531.479 206.024 526.444 206.024C520.641 206.024 515.351 204.531 510.572 201.544C505.793 198.472 501.996 194.163 499.18 188.616C496.449 182.984 495.084 176.499 495.084 169.16ZM548.588 169.288C548.588 163.827 547.052 159.517 543.98 156.36C540.993 153.203 537.324 151.624 532.972 151.624C528.62 151.624 524.908 153.203 521.836 156.36C518.849 159.432 517.356 163.699 517.356 169.16C517.356 174.621 518.849 178.973 521.836 182.216C524.908 185.373 528.62 186.952 532.972 186.952C537.324 186.952 540.993 185.373 543.98 182.216C547.052 179.059 548.588 174.749 548.588 169.288ZM677.447 132.808C686.322 132.808 693.362 135.496 698.567 140.872C703.858 146.248 706.503 153.715 706.503 163.272V205H684.743V166.216C684.743 161.608 683.506 158.067 681.031 155.592C678.642 153.032 675.314 151.752 671.047 151.752C666.78 151.752 663.41 153.032 660.935 155.592C658.546 158.067 657.351 161.608 657.351 166.216V205H635.591V166.216C635.591 161.608 634.354 158.067 631.879 155.592C629.49 153.032 626.162 151.752 621.895 151.752C617.628 151.752 614.258 153.032 611.783 155.592C609.394 158.067 608.199 161.608 608.199 166.216V205H586.311V133.576H608.199V142.536C610.418 139.549 613.319 137.203 616.903 135.496C620.487 133.704 624.54 132.808 629.063 132.808C634.439 132.808 639.218 133.96 643.399 136.264C647.666 138.568 650.994 141.853 653.383 146.12C655.858 142.195 659.228 138.995 663.495 136.52C667.762 134.045 672.412 132.808 677.447 132.808Z" fill="#E8798A"/>
</svg>
