<svg width="573" height="224" viewBox="0 0 573 224" fill="none" xmlns="http://www.w3.org/2000/svg">
<rect x="31" y="42" width="63.0455" height="63.0455" fill="#E8798A"/>
<rect x="100.955" y="111.955" width="63.0455" height="63.0455" fill="#E8798A"/>
<rect x="31" y="111.955" width="63.0455" height="63.0455" rx="31.5227" fill="#E8798A"/>
<rect x="100.955" y="42" width="63.0455" height="63.0455" fill="#E8798A"/>
<path d="M225.824 62.28V157H203.936V62.28H225.824ZM237.334 121.16C237.334 113.821 238.699 107.379 241.43 101.832C244.246 96.2853 248.043 92.0187 252.822 89.032C257.601 86.0453 262.934 84.552 268.822 84.552C273.857 84.552 278.251 85.576 282.006 87.624C285.846 89.672 288.79 92.36 290.838 95.688V85.576H312.726V157H290.838V146.888C288.705 150.216 285.718 152.904 281.878 154.952C278.123 157 273.729 158.024 268.694 158.024C262.891 158.024 257.601 156.531 252.822 153.544C248.043 150.472 244.246 146.163 241.43 140.616C238.699 134.984 237.334 128.499 237.334 121.16ZM290.838 121.288C290.838 115.827 289.302 111.517 286.23 108.36C283.243 105.203 279.574 103.624 275.222 103.624C270.87 103.624 267.158 105.203 264.086 108.36C261.099 111.432 259.606 115.699 259.606 121.16C259.606 126.621 261.099 130.973 264.086 134.216C267.158 137.373 270.87 138.952 275.222 138.952C279.574 138.952 283.243 137.373 286.23 134.216C289.302 131.059 290.838 126.749 290.838 121.288ZM395.889 120.136C395.889 122.184 395.761 124.317 395.505 126.536H345.969C346.31 130.973 347.718 134.387 350.193 136.776C352.753 139.08 355.868 140.232 359.537 140.232C364.998 140.232 368.796 137.928 370.929 133.32H394.225C393.03 138.013 390.854 142.237 387.697 145.992C384.625 149.747 380.742 152.691 376.049 154.824C371.356 156.957 366.108 158.024 360.305 158.024C353.308 158.024 347.078 156.531 341.617 153.544C336.156 150.557 331.889 146.291 328.817 140.744C325.745 135.197 324.209 128.712 324.209 121.288C324.209 113.864 325.702 107.379 328.689 101.832C331.761 96.2853 336.028 92.0187 341.489 89.032C346.95 86.0453 353.222 84.552 360.305 84.552C367.217 84.552 373.361 86.0027 378.737 88.904C384.113 91.8053 388.294 95.944 391.281 101.32C394.353 106.696 395.889 112.968 395.889 120.136ZM373.489 114.376C373.489 110.621 372.209 107.635 369.649 105.416C367.089 103.197 363.889 102.088 360.049 102.088C356.38 102.088 353.265 103.155 350.705 105.288C348.23 107.421 346.694 110.451 346.097 114.376H373.489ZM429.324 97.48C431.884 93.5547 435.084 90.4827 438.924 88.264C442.764 85.96 447.031 84.808 451.724 84.808V107.976H445.708C440.247 107.976 436.151 109.171 433.42 111.56C430.689 113.864 429.324 117.96 429.324 123.848V157H407.436V85.576H429.324V97.48ZM457.834 121.16C457.834 113.821 459.199 107.379 461.93 101.832C464.746 96.2853 468.543 92.0187 473.322 89.032C478.101 86.0453 483.434 84.552 489.322 84.552C494.357 84.552 498.751 85.576 502.506 87.624C506.346 89.672 509.29 92.36 511.338 95.688V85.576H533.226V157H511.338V146.888C509.205 150.216 506.218 152.904 502.378 154.952C498.623 157 494.229 158.024 489.194 158.024C483.391 158.024 478.101 156.531 473.322 153.544C468.543 150.472 464.746 146.163 461.93 140.616C459.199 134.984 457.834 128.499 457.834 121.16ZM511.338 121.288C511.338 115.827 509.802 111.517 506.73 108.36C503.743 105.203 500.074 103.624 495.722 103.624C491.37 103.624 487.658 105.203 484.586 108.36C481.599 111.432 480.106 115.699 480.106 121.16C480.106 126.621 481.599 130.973 484.586 134.216C487.658 137.373 491.37 138.952 495.722 138.952C500.074 138.952 503.743 137.373 506.73 134.216C509.802 131.059 511.338 126.749 511.338 121.288Z" fill="#E8798A"/>
</svg>
